<svg xmlns="http://www.w3.org/2000/svg" xmlns:xlink="http://www.w3.org/1999/xlink" viewBox="0 0 736.49 703.12"><defs><style>.cls-1{filter:url(#luminosity-noclip);}.cls-2{fill:#fff;opacity:0;}.cls-3{fill:#fefefe;opacity:0;}.cls-4{fill:#fdfdfd;opacity:0;}.cls-5{fill:#fcfcfc;opacity:0;}.cls-6{fill:#fbfbfb;opacity:0;}.cls-7{fill:#fafafa;opacity:0;}.cls-8{fill:#f9f9f9;opacity:0;}.cls-9{fill:#f8f8f8;opacity:0.01;}.cls-10{fill:#f7f7f7;opacity:0.01;}.cls-11{fill:#f6f6f6;opacity:0.01;}.cls-12{fill:#f5f5f5;opacity:0.01;}.cls-13{fill:#f4f4f4;opacity:0.01;}.cls-14{fill:#f3f3f3;opacity:0.01;}.cls-15{fill:#f2f2f2;opacity:0.01;}.cls-16{fill:#f1f1f1;opacity:0.01;}.cls-17{fill:#f0f0f0;opacity:0.01;}.cls-18{fill:#efefef;opacity:0.01;}.cls-19{fill:#eee;opacity:0.01;}.cls-20{fill:#ededed;opacity:0.01;}.cls-21{fill:#ececec;opacity:0.01;}.cls-22{fill:#ebebeb;opacity:0.02;}.cls-23{fill:#eaeaea;opacity:0.02;}.cls-24{fill:#e9e9e9;opacity:0.02;}.cls-25{fill:#e8e8e8;opacity:0.02;}.cls-26{fill:#e7e7e7;opacity:0.02;}.cls-27{fill:#e6e6e6;opacity:0.02;}.cls-28{fill:#e5e5e5;opacity:0.02;}.cls-29{fill:#e4e4e4;opacity:0.02;}.cls-30{fill:#e3e3e3;opacity:0.02;}.cls-31{fill:#e2e2e2;opacity:0.02;}.cls-32{fill:#e1e1e1;opacity:0.02;}.cls-33{fill:#e0e0e0;opacity:0.02;}.cls-34{fill:#dfdfdf;opacity:0.03;}.cls-35{fill:#dedede;opacity:0.03;}.cls-36{fill:#ddd;opacity:0.03;}.cls-37{fill:#dcdcdc;opacity:0.03;}.cls-38{fill:#dbdbdb;opacity:0.03;}.cls-39{fill:#dadada;opacity:0.03;}.cls-40{fill:#d9d9d9;opacity:0.03;}.cls-41{fill:#d8d8d8;opacity:0.03;}.cls-42{fill:#d7d7d7;opacity:0.03;}.cls-43{fill:#d6d6d6;opacity:0.03;}.cls-44{fill:#d5d5d5;opacity:0.03;}.cls-45{fill:#d4d4d4;opacity:0.03;}.cls-46{fill:#d3d3d3;opacity:0.03;}.cls-47{fill:#d2d2d2;opacity:0.04;}.cls-48{fill:#d1d1d1;opacity:0.04;}.cls-49{fill:#d0d0d0;opacity:0.04;}.cls-50{fill:#cfcfcf;opacity:0.04;}.cls-51{fill:#cecece;opacity:0.04;}.cls-52{fill:#cdcdcd;opacity:0.04;}.cls-53{fill:#ccc;opacity:0.04;}.cls-54{fill:#cbcbcb;opacity:0.04;}.cls-55{fill:#cacaca;opacity:0.04;}.cls-56{fill:#c9c9c9;opacity:0.04;}.cls-57{fill:#c8c8c8;opacity:0.04;}.cls-58{fill:#c7c7c7;opacity:0.04;}.cls-59{fill:#c6c6c6;opacity:0.04;}.cls-60{fill:#c5c5c5;opacity:0.05;}.cls-61{fill:#c4c4c4;opacity:0.05;}.cls-62{fill:#c3c3c3;opacity:0.05;}.cls-63{fill:#c2c2c2;opacity:0.05;}.cls-64{fill:#c1c1c1;opacity:0.05;}.cls-65{fill:silver;opacity:0.05;}.cls-66{fill:#bfbfbf;opacity:0.05;}.cls-67{fill:#bebebe;opacity:0.05;}.cls-68{fill:#bdbdbd;opacity:0.05;}.cls-69{fill:#bcbcbc;opacity:0.05;}.cls-70{fill:#bbb;opacity:0.05;}.cls-71{fill:#bababa;opacity:0.05;}.cls-72{fill:#b9b9b9;opacity:0.05;}.cls-73{fill:#b8b8b8;opacity:0.06;}.cls-74{fill:#b7b7b7;opacity:0.06;}.cls-75{fill:#b6b6b6;opacity:0.06;}.cls-76{fill:#b5b5b5;opacity:0.06;}.cls-77{fill:#b4b4b4;opacity:0.06;}.cls-78{fill:#b3b3b3;opacity:0.06;}.cls-79{fill:#b2b2b2;opacity:0.06;}.cls-80{fill:#b1b1b1;opacity:0.06;}.cls-81{fill:#b0b0b0;opacity:0.06;}.cls-82{fill:#afafaf;opacity:0.06;}.cls-83{fill:#aeaeae;opacity:0.06;}.cls-84{fill:#adadad;opacity:0.06;}.cls-85{fill:#acacac;opacity:0.07;}.cls-86{fill:#ababab;opacity:0.07;}.cls-87{fill:#aaa;opacity:0.07;}.cls-88{fill:#a9a9a9;opacity:0.07;}.cls-89{fill:#a8a8a8;opacity:0.07;}.cls-90{fill:#a7a7a7;opacity:0.07;}.cls-91{fill:#a6a6a6;opacity:0.07;}.cls-92{fill:#a5a5a5;opacity:0.07;}.cls-93{fill:#a4a4a4;opacity:0.07;}.cls-94{fill:#a3a3a3;opacity:0.07;}.cls-95{fill:#a2a2a2;opacity:0.07;}.cls-96{fill:#a1a1a1;opacity:0.07;}.cls-97{fill:#a0a0a0;opacity:0.07;}.cls-98{fill:#9f9f9f;opacity:0.08;}.cls-99{fill:#9e9e9e;opacity:0.08;}.cls-100{fill:#9d9d9d;opacity:0.08;}.cls-101{fill:#9c9c9c;opacity:0.08;}.cls-102{fill:#9b9b9b;opacity:0.08;}.cls-103{fill:#9a9a9a;opacity:0.08;}.cls-104{fill:#999;opacity:0.08;}.cls-105{fill:#989898;opacity:0.08;}.cls-106{fill:#979797;opacity:0.08;}.cls-107{fill:#969696;opacity:0.08;}.cls-108{fill:#959595;opacity:0.08;}.cls-109{fill:#949494;opacity:0.08;}.cls-110{fill:#939393;opacity:0.08;}.cls-111{fill:#929292;opacity:0.09;}.cls-112{fill:#919191;opacity:0.09;}.cls-113{fill:#909090;opacity:0.09;}.cls-114{fill:#8f8f8f;opacity:0.09;}.cls-115{fill:#8e8e8e;opacity:0.09;}.cls-116{fill:#8d8d8d;opacity:0.09;}.cls-117{fill:#8c8c8c;opacity:0.09;}.cls-118{fill:#8b8b8b;opacity:0.09;}.cls-119{fill:#8a8a8a;opacity:0.09;}.cls-120{fill:#898989;opacity:0.09;}.cls-121{fill:#888;opacity:0.09;}.cls-122{fill:#878787;opacity:0.09;}.cls-123{fill:#868686;opacity:0.09;}.cls-124{fill:#858585;opacity:0.1;}.cls-125{fill:#848484;opacity:0.1;}.cls-126{fill:#838383;opacity:0.1;}.cls-127{fill:#828282;opacity:0.1;}.cls-128{fill:#818181;opacity:0.1;}.cls-129{fill:gray;opacity:0.1;}.cls-130{fill:#7f7f7f;opacity:0.1;}.cls-131{fill:#7e7e7e;opacity:0.1;}.cls-132{fill:#7d7d7d;opacity:0.1;}.cls-133{fill:#7c7c7c;opacity:0.1;}.cls-134{fill:#7b7b7b;opacity:0.1;}.cls-135{fill:#7a7a7a;opacity:0.1;}.cls-136{fill:#797979;opacity:0.11;}.cls-137{fill:#787878;opacity:0.11;}.cls-138{fill:#777;opacity:0.11;}.cls-139{fill:#767676;opacity:0.11;}.cls-140{fill:#757575;opacity:0.11;}.cls-141{fill:#747474;opacity:0.11;}.cls-142{fill:#737373;opacity:0.11;}.cls-143{fill:#727272;opacity:0.11;}.cls-144{fill:#717171;opacity:0.11;}.cls-145{fill:#707070;opacity:0.11;}.cls-146{fill:#6f6f6f;opacity:0.11;}.cls-147{fill:#6e6e6e;opacity:0.11;}.cls-148{fill:#6d6d6d;opacity:0.11;}.cls-149{fill:#6c6c6c;opacity:0.12;}.cls-150{fill:#6b6b6b;opacity:0.12;}.cls-151{fill:#6a6a6a;opacity:0.12;}.cls-152{fill:#696969;opacity:0.12;}.cls-153{fill:#686868;opacity:0.12;}.cls-154{fill:#676767;opacity:0.12;}.cls-155{fill:#666;opacity:0.12;}.cls-156{fill:#656565;opacity:0.12;}.cls-157{fill:#646464;opacity:0.12;}.cls-158{fill:#636363;opacity:0.12;}.cls-159{fill:#626262;opacity:0.12;}.cls-160{fill:#616161;opacity:0.12;}.cls-161{fill:#606060;opacity:0.12;}.cls-162{fill:#5f5f5f;opacity:0.13;}.cls-163{fill:#5e5e5e;opacity:0.13;}.cls-164{fill:#5d5d5d;opacity:0.13;}.cls-165{fill:#5c5c5c;opacity:0.13;}.cls-166{fill:#5b5b5b;opacity:0.13;}.cls-167{fill:#5a5a5a;opacity:0.13;}.cls-168{fill:#595959;opacity:0.13;}.cls-169{fill:#585858;opacity:0.13;}.cls-170{fill:#575757;opacity:0.13;}.cls-171{fill:#565656;opacity:0.13;}.cls-172{fill:#555;opacity:0.13;}.cls-173{fill:#545454;opacity:0.13;}.cls-174{fill:#535353;opacity:0.13;}.cls-175{fill:#525252;opacity:0.14;}.cls-176{fill:#515151;opacity:0.14;}.cls-177{fill:#505050;opacity:0.14;}.cls-178{fill:#4f4f4f;opacity:0.14;}.cls-179{fill:#4e4e4e;opacity:0.14;}.cls-180{fill:#4d4d4d;opacity:0.14;}.cls-181{fill:#4c4c4c;opacity:0.14;}.cls-182{fill:#4b4b4b;opacity:0.14;}.cls-183{fill:#4a4a4a;opacity:0.14;}.cls-184{fill:#494949;opacity:0.14;}.cls-185{fill:#484848;opacity:0.14;}.cls-186{fill:#474747;opacity:0.14;}.cls-187{fill:#464646;opacity:0.15;}.cls-188{fill:#454545;opacity:0.15;}.cls-189{fill:#444;opacity:0.15;}.cls-190{fill:#434343;opacity:0.15;}.cls-191{fill:#424242;opacity:0.15;}.cls-192{fill:#414141;opacity:0.15;}.cls-193{fill:#404040;opacity:0.15;}.cls-194{fill:#3f3f3f;opacity:0.15;}.cls-195{fill:#3e3e3e;opacity:0.15;}.cls-196{fill:#3d3d3d;opacity:0.15;}.cls-197{fill:#3c3c3c;opacity:0.15;}.cls-198{fill:#3b3b3b;opacity:0.15;}.cls-199{fill:#3a3a3a;opacity:0.15;}.cls-200{fill:#393939;opacity:0.16;}.cls-201{fill:#383838;opacity:0.16;}.cls-202{fill:#373737;opacity:0.16;}.cls-203{fill:#363636;opacity:0.16;}.cls-204{fill:#353535;opacity:0.16;}.cls-205{fill:#343434;opacity:0.16;}.cls-206{fill:#333;opacity:0.16;}.cls-207{fill:#323232;opacity:0.16;}.cls-208{fill:#313131;opacity:0.16;}.cls-209{fill:#303030;opacity:0.16;}.cls-210{fill:#2f2f2f;opacity:0.16;}.cls-211{fill:#2e2e2e;opacity:0.16;}.cls-212{fill:#2d2d2d;opacity:0.16;}.cls-213{fill:#2c2c2c;opacity:0.17;}.cls-214{fill:#2b2b2b;opacity:0.17;}.cls-215{fill:#2a2a2a;opacity:0.17;}.cls-216{fill:#292929;opacity:0.17;}.cls-217{fill:#282828;opacity:0.17;}.cls-218{fill:#272727;opacity:0.17;}.cls-219{fill:#262626;opacity:0.17;}.cls-220{fill:#252525;opacity:0.17;}.cls-221{fill:#242424;opacity:0.17;}.cls-222{fill:#232323;opacity:0.17;}.cls-223{fill:#222;opacity:0.17;}.cls-224{fill:#212121;opacity:0.17;}.cls-225{fill:#202020;opacity:0.17;}.cls-226{fill:#1f1f1f;opacity:0.18;}.cls-227{fill:#1e1e1e;opacity:0.18;}.cls-228{fill:#1d1d1d;opacity:0.18;}.cls-229{fill:#1c1c1c;opacity:0.18;}.cls-230{fill:#1b1b1b;opacity:0.18;}.cls-231{fill:#1a1a1a;opacity:0.18;}.cls-232{fill:#191919;opacity:0.18;}.cls-233{fill:#181818;opacity:0.18;}.cls-234{fill:#171717;opacity:0.18;}.cls-235{fill:#161616;opacity:0.18;}.cls-236{fill:#151515;opacity:0.18;}.cls-237{fill:#141414;opacity:0.18;}.cls-238{fill:#131313;opacity:0.19;}.cls-239{fill:#121212;opacity:0.19;}.cls-240{fill:#111;opacity:0.19;}.cls-241{fill:#101010;opacity:0.19;}.cls-242{fill:#0f0f0f;opacity:0.19;}.cls-243{fill:#0e0e0e;opacity:0.19;}.cls-244{fill:#0d0d0d;opacity:0.19;}.cls-245{fill:#0c0c0c;opacity:0.19;}.cls-246{fill:#0b0b0b;opacity:0.19;}.cls-247{fill:#0a0a0a;opacity:0.19;}.cls-248{fill:#090909;opacity:0.19;}.cls-249{fill:#080808;opacity:0.19;}.cls-250{fill:#070707;opacity:0.19;}.cls-251{fill:#060606;opacity:0.2;}.cls-252{fill:#050505;opacity:0.2;}.cls-253{fill:#040404;opacity:0.2;}.cls-254{fill:#030303;opacity:0.2;}.cls-255{fill:#020202;opacity:0.2;}.cls-256{fill:#010101;opacity:0.2;}.cls-257{opacity:0.2;}.cls-258{mask:url(#mask);}.cls-259{fill:url(#linear-gradient);}.cls-260{fill:url(#linear-gradient-2);}.cls-261{fill:url(#linear-gradient-3);}.cls-262{fill:url(#linear-gradient-4);}</style><filter id="luminosity-noclip" x="0" y="0" width="736.49" height="670.04" filterUnits="userSpaceOnUse" color-interpolation-filters="sRGB"><feFlood flood-color="#fff" result="bg"/><feBlend in="SourceGraphic" in2="bg"/></filter><mask id="mask" x="0" y="0" width="736.49" height="670.04" maskUnits="userSpaceOnUse"><path class="cls-1" d="M696.13,300.39l2,10.25L245,410.31l-5.49-27.41,456.67-82.51m7.16-10.54-8.78,1.59L237.84,374l-9.11,1.64,1.81,9.09L236,412.1l1.82,9.08,9.05-2,453.23-99.67,8.72-1.92-1.75-8.75L705,298.6l-1.75-8.75Z"/></mask><linearGradient id="linear-gradient" y1="335.02" x2="736.49" y2="335.02" gradientUnits="userSpaceOnUse"><stop offset="0" stop-color="#00a01e"/><stop offset="0.04" stop-color="#1fac1a"/><stop offset="0.11" stop-color="#5ac113"/><stop offset="0.18" stop-color="#8cd40d"/><stop offset="0.25" stop-color="#b6e409"/><stop offset="0.32" stop-color="#d6f005"/><stop offset="0.38" stop-color="#ecf802"/><stop offset="0.45" stop-color="#fafd01"/><stop offset="0.5" stop-color="#ff0"/><stop offset="0.57" stop-color="#fffb00"/><stop offset="0.64" stop-color="#fff100"/><stop offset="0.7" stop-color="#ffde00"/><stop offset="0.76" stop-color="#ffc500"/><stop offset="0.81" stop-color="#ffa400"/><stop offset="0.87" stop-color="#ff7b00"/><stop offset="0.93" stop-color="#ff4c00"/><stop offset="0.96" stop-color="#ff2c00"/></linearGradient><linearGradient id="linear-gradient-2" x1="368.25" y1="84.82" x2="368.25" y2="521.38" gradientUnits="userSpaceOnUse"><stop offset="0" stop-color="#838383"/><stop offset="0.16" stop-color="#7e7e7e"/><stop offset="0.34" stop-color="#717171"/><stop offset="0.53" stop-color="#5a5a5a"/><stop offset="0.72" stop-color="#3a3a3a"/><stop offset="0.93" stop-color="#111"/><stop offset="1"/></linearGradient><linearGradient id="linear-gradient-3" x1="468.82" y1="84.82" x2="468.82" y2="521.38" xlink:href="#linear-gradient-2"/><linearGradient id="linear-gradient-4" x1="374.25" y1="84.82" x2="374.25" y2="521.38" xlink:href="#linear-gradient-2"/></defs><title>Asset 1</title><g id="Layer_2" data-name="Layer 2"><g id="Layer_1-2" data-name="Layer 1"><ellipse class="cls-2" cx="368.25" cy="670.04" rx="342.96" ry="33.08"/><ellipse class="cls-3" cx="367.41" cy="670.04" rx="341.63" ry="32.95"/><ellipse class="cls-4" cx="366.56" cy="670.04" rx="340.31" ry="32.83"/><ellipse class="cls-5" cx="365.72" cy="670.04" rx="338.98" ry="32.7"/><ellipse class="cls-6" cx="364.88" cy="670.04" rx="337.65" ry="32.57"/><ellipse class="cls-7" cx="364.04" cy="670.04" rx="336.32" ry="32.44"/><ellipse class="cls-8" cx="363.2" cy="670.04" rx="334.99" ry="32.31"/><ellipse class="cls-9" cx="362.36" cy="670.04" rx="333.66" ry="32.19"/><ellipse class="cls-10" cx="361.52" cy="670.04" rx="332.34" ry="32.06"/><ellipse class="cls-11" cx="360.68" cy="670.04" rx="331.01" ry="31.93"/><ellipse class="cls-12" cx="359.83" cy="670.04" rx="329.68" ry="31.8"/><ellipse class="cls-13" cx="358.99" cy="670.04" rx="328.35" ry="31.67"/><ellipse class="cls-14" cx="358.15" cy="670.04" rx="327.02" ry="31.55"/><ellipse class="cls-15" cx="357.31" cy="670.04" rx="325.69" ry="31.42"/><ellipse class="cls-16" cx="356.47" cy="670.04" rx="324.36" ry="31.29"/><ellipse class="cls-17" cx="355.63" cy="670.04" rx="323.04" ry="31.16"/><ellipse class="cls-18" cx="354.79" cy="670.04" rx="321.71" ry="31.03"/><ellipse class="cls-19" cx="353.94" cy="670.04" rx="320.38" ry="30.9"/><ellipse class="cls-20" cx="353.1" cy="670.04" rx="319.05" ry="30.78"/><ellipse class="cls-21" cx="352.26" cy="670.04" rx="317.72" ry="30.65"/><ellipse class="cls-22" cx="351.42" cy="670.04" rx="316.39" ry="30.52"/><ellipse class="cls-23" cx="350.58" cy="670.04" rx="315.07" ry="30.39"/><ellipse class="cls-24" cx="349.74" cy="670.04" rx="313.74" ry="30.26"/><ellipse class="cls-25" cx="348.9" cy="670.04" rx="312.41" ry="30.14"/><ellipse class="cls-26" cx="348.06" cy="670.04" rx="311.08" ry="30.01"/><ellipse class="cls-27" cx="347.21" cy="670.04" rx="309.75" ry="29.88"/><ellipse class="cls-28" cx="346.37" cy="670.04" rx="308.42" ry="29.75"/><ellipse class="cls-29" cx="345.53" cy="670.04" rx="307.1" ry="29.62"/><ellipse class="cls-30" cx="344.69" cy="670.04" rx="305.77" ry="29.49"/><ellipse class="cls-31" cx="343.85" cy="670.04" rx="304.44" ry="29.37"/><ellipse class="cls-32" cx="343.01" cy="670.04" rx="303.11" ry="29.24"/><ellipse class="cls-33" cx="342.17" cy="670.04" rx="301.78" ry="29.11"/><ellipse class="cls-34" cx="341.33" cy="670.04" rx="300.45" ry="28.98"/><ellipse class="cls-35" cx="340.48" cy="670.04" rx="299.12" ry="28.85"/><ellipse class="cls-36" cx="339.64" cy="670.04" rx="297.8" ry="28.73"/><ellipse class="cls-37" cx="338.8" cy="670.04" rx="296.47" ry="28.6"/><ellipse class="cls-38" cx="337.96" cy="670.04" rx="295.14" ry="28.47"/><ellipse class="cls-39" cx="337.12" cy="670.04" rx="293.81" ry="28.34"/><ellipse class="cls-40" cx="336.28" cy="670.04" rx="292.48" ry="28.21"/><ellipse class="cls-41" cx="335.44" cy="670.04" rx="291.15" ry="28.09"/><ellipse class="cls-42" cx="334.6" cy="670.04" rx="289.83" ry="27.96"/><ellipse class="cls-43" cx="333.75" cy="670.04" rx="288.5" ry="27.83"/><ellipse class="cls-44" cx="332.91" cy="670.04" rx="287.17" ry="27.7"/><ellipse class="cls-45" cx="332.07" cy="670.04" rx="285.84" ry="27.57"/><ellipse class="cls-46" cx="331.23" cy="670.04" rx="284.51" ry="27.44"/><ellipse class="cls-47" cx="330.39" cy="670.04" rx="283.18" ry="27.32"/><ellipse class="cls-48" cx="329.55" cy="670.04" rx="281.86" ry="27.19"/><ellipse class="cls-49" cx="328.71" cy="670.04" rx="280.53" ry="27.06"/><ellipse class="cls-50" cx="327.87" cy="670.04" rx="279.2" ry="26.93"/><ellipse class="cls-51" cx="327.02" cy="670.04" rx="277.87" ry="26.8"/><ellipse class="cls-52" cx="326.18" cy="670.04" rx="276.54" ry="26.68"/><ellipse class="cls-53" cx="325.34" cy="670.04" rx="275.21" ry="26.55"/><ellipse class="cls-54" cx="324.5" cy="670.04" rx="273.88" ry="26.42"/><ellipse class="cls-55" cx="323.66" cy="670.04" rx="272.56" ry="26.29"/><ellipse class="cls-56" cx="322.82" cy="670.04" rx="271.23" ry="26.16"/><ellipse class="cls-57" cx="321.98" cy="670.04" rx="269.9" ry="26.03"/><ellipse class="cls-58" cx="321.14" cy="670.04" rx="268.57" ry="25.91"/><ellipse class="cls-59" cx="320.29" cy="670.04" rx="267.24" ry="25.78"/><ellipse class="cls-60" cx="319.45" cy="670.04" rx="265.91" ry="25.65"/><ellipse class="cls-61" cx="318.61" cy="670.04" rx="264.59" ry="25.52"/><ellipse class="cls-62" cx="317.77" cy="670.04" rx="263.26" ry="25.39"/><ellipse class="cls-63" cx="316.93" cy="670.04" rx="261.93" ry="25.27"/><ellipse class="cls-64" cx="316.09" cy="670.04" rx="260.6" ry="25.14"/><ellipse class="cls-65" cx="315.25" cy="670.04" rx="259.27" ry="25.01"/><ellipse class="cls-66" cx="314.41" cy="670.04" rx="257.94" ry="24.88"/><ellipse class="cls-67" cx="313.56" cy="670.04" rx="256.62" ry="24.75"/><ellipse class="cls-68" cx="312.72" cy="670.04" rx="255.29" ry="24.63"/><ellipse class="cls-69" cx="311.88" cy="670.04" rx="253.96" ry="24.5"/><ellipse class="cls-70" cx="311.04" cy="670.04" rx="252.63" ry="24.37"/><ellipse class="cls-71" cx="310.2" cy="670.04" rx="251.3" ry="24.24"/><ellipse class="cls-72" cx="309.36" cy="670.04" rx="249.97" ry="24.11"/><ellipse class="cls-73" cx="308.52" cy="670.04" rx="248.64" ry="23.98"/><ellipse class="cls-74" cx="307.67" cy="670.04" rx="247.32" ry="23.86"/><ellipse class="cls-75" cx="306.83" cy="670.04" rx="245.99" ry="23.73"/><ellipse class="cls-76" cx="305.99" cy="670.04" rx="244.66" ry="23.6"/><ellipse class="cls-77" cx="305.15" cy="670.04" rx="243.33" ry="23.47"/><ellipse class="cls-78" cx="304.31" cy="670.04" rx="242" ry="23.34"/><ellipse class="cls-79" cx="303.47" cy="670.04" rx="240.67" ry="23.22"/><ellipse class="cls-80" cx="302.63" cy="670.04" rx="239.35" ry="23.09"/><ellipse class="cls-81" cx="301.79" cy="670.04" rx="238.02" ry="22.96"/><ellipse class="cls-82" cx="300.94" cy="670.04" rx="236.69" ry="22.83"/><ellipse class="cls-83" cx="300.1" cy="670.04" rx="235.36" ry="22.7"/><ellipse class="cls-84" cx="299.26" cy="670.04" rx="234.03" ry="22.58"/><ellipse class="cls-85" cx="298.42" cy="670.04" rx="232.7" ry="22.45"/><ellipse class="cls-86" cx="297.58" cy="670.04" rx="231.38" ry="22.32"/><ellipse class="cls-87" cx="296.74" cy="670.04" rx="230.05" ry="22.19"/><ellipse class="cls-88" cx="295.9" cy="670.04" rx="228.72" ry="22.06"/><ellipse class="cls-89" cx="295.06" cy="670.04" rx="227.39" ry="21.93"/><ellipse class="cls-90" cx="294.21" cy="670.04" rx="226.06" ry="21.81"/><ellipse class="cls-91" cx="293.37" cy="670.04" rx="224.73" ry="21.68"/><ellipse class="cls-92" cx="292.53" cy="670.04" rx="223.4" ry="21.55"/><ellipse class="cls-93" cx="291.69" cy="670.04" rx="222.08" ry="21.42"/><ellipse class="cls-94" cx="290.85" cy="670.04" rx="220.75" ry="21.29"/><ellipse class="cls-95" cx="290.01" cy="670.04" rx="219.42" ry="21.17"/><ellipse class="cls-96" cx="289.17" cy="670.04" rx="218.09" ry="21.04"/><ellipse class="cls-97" cx="288.33" cy="670.04" rx="216.76" ry="20.91"/><ellipse class="cls-98" cx="287.48" cy="670.04" rx="215.43" ry="20.78"/><ellipse class="cls-99" cx="286.64" cy="670.04" rx="214.11" ry="20.65"/><ellipse class="cls-100" cx="285.8" cy="670.04" rx="212.78" ry="20.52"/><ellipse class="cls-101" cx="284.96" cy="670.04" rx="211.45" ry="20.4"/><ellipse class="cls-102" cx="284.12" cy="670.04" rx="210.12" ry="20.27"/><ellipse class="cls-103" cx="283.28" cy="670.04" rx="208.79" ry="20.14"/><ellipse class="cls-104" cx="282.44" cy="670.04" rx="207.46" ry="20.01"/><ellipse class="cls-105" cx="281.6" cy="670.04" rx="206.14" ry="19.88"/><ellipse class="cls-106" cx="280.75" cy="670.04" rx="204.81" ry="19.76"/><ellipse class="cls-107" cx="279.91" cy="670.04" rx="203.48" ry="19.63"/><ellipse class="cls-108" cx="279.07" cy="670.04" rx="202.15" ry="19.5"/><ellipse class="cls-109" cx="278.23" cy="670.04" rx="200.82" ry="19.37"/><ellipse class="cls-110" cx="277.39" cy="670.04" rx="199.49" ry="19.24"/><ellipse class="cls-111" cx="276.55" cy="670.04" rx="198.16" ry="19.12"/><ellipse class="cls-112" cx="275.71" cy="670.04" rx="196.84" ry="18.99"/><ellipse class="cls-113" cx="274.87" cy="670.04" rx="195.51" ry="18.86"/><ellipse class="cls-114" cx="274.02" cy="670.04" rx="194.18" ry="18.73"/><ellipse class="cls-115" cx="273.18" cy="670.04" rx="192.85" ry="18.6"/><ellipse class="cls-116" cx="272.34" cy="670.04" rx="191.52" ry="18.47"/><ellipse class="cls-117" cx="271.5" cy="670.04" rx="190.19" ry="18.35"/><ellipse class="cls-118" cx="270.66" cy="670.04" rx="188.87" ry="18.22"/><ellipse class="cls-119" cx="269.82" cy="670.04" rx="187.54" ry="18.09"/><ellipse class="cls-120" cx="268.98" cy="670.04" rx="186.21" ry="17.96"/><ellipse class="cls-121" cx="268.14" cy="670.04" rx="184.88" ry="17.83"/><ellipse class="cls-122" cx="267.29" cy="670.04" rx="183.55" ry="17.71"/><ellipse class="cls-123" cx="266.45" cy="670.04" rx="182.22" ry="17.58"/><ellipse class="cls-124" cx="265.61" cy="670.04" rx="180.9" ry="17.45"/><ellipse class="cls-125" cx="264.77" cy="670.04" rx="179.57" ry="17.32"/><ellipse class="cls-126" cx="263.93" cy="670.04" rx="178.24" ry="17.19"/><ellipse class="cls-127" cx="263.09" cy="670.04" rx="176.91" ry="17.07"/><ellipse class="cls-128" cx="262.25" cy="670.04" rx="175.58" ry="16.94"/><ellipse class="cls-129" cx="261.4" cy="670.04" rx="174.25" ry="16.81"/><ellipse class="cls-130" cx="260.56" cy="670.04" rx="172.92" ry="16.68"/><ellipse class="cls-131" cx="259.72" cy="670.04" rx="171.6" ry="16.55"/><ellipse class="cls-132" cx="258.88" cy="670.04" rx="170.27" ry="16.42"/><ellipse class="cls-133" cx="258.04" cy="670.04" rx="168.94" ry="16.3"/><ellipse class="cls-134" cx="257.2" cy="670.04" rx="167.61" ry="16.17"/><ellipse class="cls-135" cx="256.36" cy="670.04" rx="166.28" ry="16.04"/><ellipse class="cls-136" cx="255.52" cy="670.04" rx="164.95" ry="15.91"/><ellipse class="cls-137" cx="254.67" cy="670.04" rx="163.63" ry="15.78"/><ellipse class="cls-138" cx="253.83" cy="670.04" rx="162.3" ry="15.66"/><ellipse class="cls-139" cx="252.99" cy="670.04" rx="160.97" ry="15.53"/><ellipse class="cls-140" cx="252.15" cy="670.04" rx="159.64" ry="15.4"/><ellipse class="cls-141" cx="251.31" cy="670.04" rx="158.31" ry="15.27"/><ellipse class="cls-142" cx="250.47" cy="670.04" rx="156.98" ry="15.14"/><ellipse class="cls-143" cx="249.63" cy="670.04" rx="155.66" ry="15.01"/><ellipse class="cls-144" cx="248.79" cy="670.04" rx="154.33" ry="14.89"/><ellipse class="cls-145" cx="247.94" cy="670.04" rx="153" ry="14.76"/><ellipse class="cls-146" cx="247.1" cy="670.04" rx="151.67" ry="14.63"/><ellipse class="cls-147" cx="246.26" cy="670.04" rx="150.34" ry="14.5"/><ellipse class="cls-148" cx="245.42" cy="670.04" rx="149.01" ry="14.37"/><ellipse class="cls-149" cx="244.58" cy="670.04" rx="147.68" ry="14.25"/><ellipse class="cls-150" cx="243.74" cy="670.04" rx="146.36" ry="14.12"/><ellipse class="cls-151" cx="242.9" cy="670.04" rx="145.03" ry="13.99"/><ellipse class="cls-152" cx="242.06" cy="670.04" rx="143.7" ry="13.86"/><ellipse class="cls-153" cx="241.21" cy="670.04" rx="142.37" ry="13.73"/><ellipse class="cls-154" cx="240.37" cy="670.04" rx="141.04" ry="13.61"/><ellipse class="cls-155" cx="239.53" cy="670.04" rx="139.71" ry="13.48"/><ellipse class="cls-156" cx="238.69" cy="670.04" rx="138.39" ry="13.35"/><ellipse class="cls-157" cx="237.85" cy="670.04" rx="137.06" ry="13.22"/><ellipse class="cls-158" cx="237.01" cy="670.04" rx="135.73" ry="13.09"/><ellipse class="cls-159" cx="236.17" cy="670.04" rx="134.4" ry="12.96"/><ellipse class="cls-160" cx="235.33" cy="670.04" rx="133.07" ry="12.84"/><ellipse class="cls-161" cx="234.48" cy="670.04" rx="131.74" ry="12.71"/><ellipse class="cls-162" cx="233.64" cy="670.04" rx="130.42" ry="12.58"/><ellipse class="cls-163" cx="232.8" cy="670.04" rx="129.09" ry="12.45"/><ellipse class="cls-164" cx="231.96" cy="670.04" rx="127.76" ry="12.32"/><ellipse class="cls-165" cx="231.12" cy="670.04" rx="126.43" ry="12.2"/><ellipse class="cls-166" cx="230.28" cy="670.04" rx="125.1" ry="12.07"/><ellipse class="cls-167" cx="229.44" cy="670.04" rx="123.77" ry="11.94"/><ellipse class="cls-168" cx="228.6" cy="670.04" rx="122.44" ry="11.81"/><ellipse class="cls-169" cx="227.75" cy="670.04" rx="121.12" ry="11.68"/><ellipse class="cls-170" cx="226.91" cy="670.04" rx="119.79" ry="11.55"/><ellipse class="cls-171" cx="226.07" cy="670.04" rx="118.46" ry="11.43"/><ellipse class="cls-172" cx="225.23" cy="670.04" rx="117.13" ry="11.3"/><ellipse class="cls-173" cx="224.39" cy="670.04" rx="115.8" ry="11.17"/><ellipse class="cls-174" cx="223.55" cy="670.04" rx="114.47" ry="11.04"/><ellipse class="cls-175" cx="222.71" cy="670.04" rx="113.15" ry="10.91"/><ellipse class="cls-176" cx="221.86" cy="670.04" rx="111.82" ry="10.79"/><ellipse class="cls-177" cx="221.02" cy="670.04" rx="110.49" ry="10.66"/><ellipse class="cls-178" cx="220.18" cy="670.04" rx="109.16" ry="10.53"/><ellipse class="cls-179" cx="219.34" cy="670.04" rx="107.83" ry="10.4"/><ellipse class="cls-180" cx="218.5" cy="670.04" rx="106.5" ry="10.27"/><ellipse class="cls-181" cx="217.66" cy="670.04" rx="105.18" ry="10.15"/><ellipse class="cls-182" cx="216.82" cy="670.04" rx="103.85" ry="10.02"/><ellipse class="cls-183" cx="215.98" cy="670.04" rx="102.52" ry="9.89"/><ellipse class="cls-184" cx="215.13" cy="670.04" rx="101.19" ry="9.76"/><ellipse class="cls-185" cx="214.29" cy="670.04" rx="99.86" ry="9.63"/><ellipse class="cls-186" cx="213.45" cy="670.04" rx="98.53" ry="9.5"/><ellipse class="cls-187" cx="212.61" cy="670.04" rx="97.2" ry="9.38"/><ellipse class="cls-188" cx="211.77" cy="670.04" rx="95.88" ry="9.25"/><ellipse class="cls-189" cx="210.93" cy="670.04" rx="94.55" ry="9.12"/><ellipse class="cls-190" cx="210.09" cy="670.04" rx="93.22" ry="8.99"/><ellipse class="cls-191" cx="209.25" cy="670.04" rx="91.89" ry="8.86"/><ellipse class="cls-192" cx="208.4" cy="670.04" rx="90.56" ry="8.74"/><ellipse class="cls-193" cx="207.56" cy="670.04" rx="89.23" ry="8.61"/><ellipse class="cls-194" cx="206.72" cy="670.04" rx="87.91" ry="8.48"/><ellipse class="cls-195" cx="205.88" cy="670.04" rx="86.58" ry="8.35"/><ellipse class="cls-196" cx="205.04" cy="670.04" rx="85.25" ry="8.22"/><ellipse class="cls-197" cx="204.2" cy="670.04" rx="83.92" ry="8.1"/><ellipse class="cls-198" cx="203.36" cy="670.04" rx="82.59" ry="7.97"/><ellipse class="cls-199" cx="202.52" cy="670.04" rx="81.26" ry="7.84"/><ellipse class="cls-200" cx="201.67" cy="670.04" rx="79.94" ry="7.71"/><ellipse class="cls-201" cx="200.83" cy="670.04" rx="78.61" ry="7.58"/><ellipse class="cls-202" cx="199.99" cy="670.04" rx="77.28" ry="7.45"/><ellipse class="cls-203" cx="199.15" cy="670.04" rx="75.95" ry="7.33"/><ellipse class="cls-204" cx="198.31" cy="670.04" rx="74.62" ry="7.2"/><ellipse class="cls-205" cx="197.47" cy="670.04" rx="73.29" ry="7.07"/><path class="cls-206" d="M268.59,670c0,3.83-32.22,6.94-72,6.94s-72-3.11-72-6.94,32.22-6.94,72-6.94S268.59,666.2,268.59,670Z"/><ellipse class="cls-207" cx="195.79" cy="670.04" rx="70.64" ry="6.81"/><ellipse class="cls-208" cx="194.94" cy="670.04" rx="69.31" ry="6.69"/><ellipse class="cls-209" cx="194.1" cy="670.04" rx="67.98" ry="6.56"/><ellipse class="cls-210" cx="193.26" cy="670.04" rx="66.65" ry="6.43"/><ellipse class="cls-211" cx="192.42" cy="670.04" rx="65.32" ry="6.3"/><ellipse class="cls-212" cx="191.58" cy="670.04" rx="63.99" ry="6.17"/><path class="cls-213" d="M253.4,670c0,3.34-28.05,6-62.66,6s-62.67-2.7-62.67-6,28.06-6,62.67-6S253.4,666.7,253.4,670Z"/><ellipse class="cls-214" cx="189.9" cy="670.04" rx="61.34" ry="5.92"/><ellipse class="cls-215" cx="189.06" cy="670.04" rx="60.01" ry="5.79"/><ellipse class="cls-216" cx="188.21" cy="670.04" rx="58.68" ry="5.66"/><ellipse class="cls-217" cx="187.37" cy="670.04" rx="57.35" ry="5.53"/><path class="cls-218" d="M242.56,670c0,3-25.09,5.4-56,5.4s-56-2.42-56-5.4,25.08-5.41,56-5.41S242.56,667.05,242.56,670Z"/><ellipse class="cls-219" cx="185.69" cy="670.04" rx="54.7" ry="5.28"/><ellipse class="cls-220" cx="184.85" cy="670.04" rx="53.37" ry="5.15"/><ellipse class="cls-221" cx="184.01" cy="670.04" rx="52.04" ry="5.02"/><ellipse class="cls-222" cx="183.17" cy="670.04" rx="50.71" ry="4.89"/><ellipse class="cls-223" cx="182.33" cy="670.04" rx="49.38" ry="4.76"/><ellipse class="cls-224" cx="181.48" cy="670.04" rx="48.05" ry="4.64"/><path class="cls-225" d="M227.37,670c0,2.49-20.92,4.5-46.73,4.5s-46.72-2-46.72-4.5,20.92-4.51,46.72-4.51S227.37,667.55,227.37,670Z"/><ellipse class="cls-226" cx="179.8" cy="670.04" rx="45.4" ry="4.38"/><ellipse class="cls-227" cx="178.96" cy="670.04" rx="44.07" ry="4.25"/><ellipse class="cls-228" cx="178.12" cy="670.04" rx="42.74" ry="4.12"/><ellipse class="cls-229" cx="177.28" cy="670.04" rx="41.41" ry="3.99"/><path class="cls-230" d="M216.52,670c0,2.13-18,3.86-40.08,3.86s-40.09-1.73-40.09-3.86,18-3.87,40.09-3.87S216.52,667.9,216.52,670Z"/><ellipse class="cls-231" cx="175.59" cy="670.04" rx="38.75" ry="3.74"/><path class="cls-232" d="M212.18,670c0,2-16.76,3.61-37.43,3.61S137.33,672,137.33,670s16.75-3.61,37.42-3.61S212.18,668,212.18,670Z"/><ellipse class="cls-233" cx="173.91" cy="670.04" rx="36.1" ry="3.48"/><ellipse class="cls-234" cx="173.07" cy="670.04" rx="34.77" ry="3.35"/><ellipse class="cls-235" cx="172.23" cy="670.04" rx="33.44" ry="3.23"/><ellipse class="cls-236" cx="171.39" cy="670.04" rx="32.11" ry="3.1"/><path class="cls-237" d="M201.33,670c0,1.64-13.78,3-30.78,3s-30.79-1.33-30.79-3,13.79-3,30.79-3S201.33,668.4,201.33,670Z"/><ellipse class="cls-238" cx="169.71" cy="670.04" rx="29.46" ry="2.84"/><ellipse class="cls-239" cx="168.86" cy="670.04" rx="28.13" ry="2.71"/><ellipse class="cls-240" cx="168.02" cy="670.04" rx="26.8" ry="2.59"/><ellipse class="cls-241" cx="167.18" cy="670.04" rx="25.47" ry="2.46"/><ellipse class="cls-242" cx="166.34" cy="670.04" rx="24.14" ry="2.33"/><ellipse class="cls-243" cx="165.5" cy="670.04" rx="22.81" ry="2.2"/><path class="cls-244" d="M186.14,670c0,1.14-9.62,2.07-21.48,2.07s-21.49-.93-21.49-2.07,9.62-2.08,21.49-2.08S186.14,668.89,186.14,670Z"/><ellipse class="cls-245" cx="163.82" cy="670.04" rx="20.16" ry="1.94"/><ellipse class="cls-246" cx="162.98" cy="670.04" rx="18.83" ry="1.82"/><ellipse class="cls-247" cx="162.13" cy="670.04" rx="17.5" ry="1.69"/><ellipse class="cls-248" cx="161.29" cy="670.04" rx="16.17" ry="1.56"/><path class="cls-249" d="M175.29,670c0,.79-6.64,1.43-14.84,1.43s-14.84-.64-14.84-1.43,6.64-1.43,14.84-1.43S175.29,669.25,175.29,670Z"/><ellipse class="cls-250" cx="159.61" cy="670.04" rx="13.51" ry="1.3"/><ellipse class="cls-251" cx="158.77" cy="670.04" rx="12.19" ry="1.18"/><ellipse class="cls-252" cx="157.93" cy="670.04" rx="10.86" ry="1.05"/><ellipse class="cls-253" cx="157.09" cy="670.04" rx="9.53" ry="0.92"/><ellipse class="cls-254" cx="156.25" cy="670.04" rx="8.2" ry="0.79"/><ellipse class="cls-255" cx="155.4" cy="670.04" rx="6.87" ry="0.66"/><path class="cls-256" d="M160.11,670c0,.29-2.49.53-5.55.53S149,670.33,149,670s2.48-.54,5.54-.54S160.11,669.74,160.11,670Z"/><ellipse class="cls-257" cx="153.72" cy="670.04" rx="4.22" ry="0.41"/><g class="cls-258"><path class="cls-259" d="M579.3,670,538.62,612a297.89,297.89,0,0,0,127-243.71c0-163.95-133.38-297.34-297.33-297.34S70.91,204.3,70.91,368.25A297.9,297.9,0,0,0,197.88,612L157.19,670A367.86,367.86,0,0,1,0,368.25,368.33,368.33,0,0,1,707.54,224.9a369,369,0,0,1-14,316.13A371.23,371.23,0,0,1,579.3,670Z"/></g><path class="cls-260" d="M596,503.39l-43.82-27.62c1.74-2.76,3.44-5.59,5-8.42l45,25.61C600.23,496.47,598.13,500,596,503.39Zm-455.61-.31c-2.15-3.42-4.24-6.93-6.23-10.44l45.06-25.54c1.6,2.83,3.3,5.66,5,8.42Zm494.3-105.53-51.3-7.14c.45-3.22.83-6.5,1.13-9.75l51.58,4.83C635.69,389.51,635.22,393.57,634.66,397.55Zm-532.85-.36c-.55-4-1-8.05-1.38-12.08L152,380.36c.3,3.25.67,6.53,1.12,9.75Zm475.11-97.53c-.91-3.13-1.9-6.28-2.94-9.36l49-16.65c1.3,3.82,2.52,7.73,3.64,11.61Zm-417.22-.31L110,284.89c1.13-3.88,2.36-7.78,3.67-11.6l49,16.72C161.6,293.09,160.61,296.23,159.7,299.35ZM533.84,219.6c-2.12-2.49-4.32-5-6.53-7.35L565.23,177c2.74,2.95,5.46,6,8.07,9.08Zm-331-.23-39.43-33.6c2.62-3.07,5.34-6.12,8.09-9.07L209.42,212C207.2,214.42,205,216.89,202.89,219.37Zm258.88-55.3c-2.94-1.41-5.94-2.76-8.92-4L473,112.35c3.71,1.56,7.43,3.24,11.07,5ZM275,163.94l-22.27-46.77c3.65-1.74,7.39-3.42,11.12-5L284,159.92C281,161.18,278,162.54,275,163.94ZM373.36,143c-3.26-.07-6.57-.08-9.84,0l-1.1-51.79c4.06-.08,8.13-.08,12.13,0Z"/><polygon class="cls-261" points="239.46 382.9 696.13 300.39 698.18 310.64 244.95 410.31 239.46 382.9"/><path class="cls-262" d="M406.49,381.92A34.31,34.31,0,1,1,386,338,34.31,34.31,0,0,1,406.49,381.92Z"/></g></g></svg>